<svg width="167" height="48" viewBox="0 0 167 48" fill="none" xmlns="http://www.w3.org/2000/svg">
<path d="M20.5766 0.684814C20.5766 0.684814 21.8849 0.396554 22.6342 0.686768C23.3673 0.970809 22.634 2.05774 23.3198 2.05786C25.5303 2.23603 27.937 2.28931 28.1205 2.74243L30.1791 3.42896C30.1879 3.43178 31.0176 3.69677 31.5502 3.42993C32.922 2.74274 32.9709 2.26171 34.2944 2.05688C35.3758 1.88955 37.008 2.72719 37.0375 2.74243C37.0375 2.74243 38.798 2.90992 39.0952 3.42993C39.3584 3.89077 38.4268 4.78365 38.4096 4.80005C38.4096 4.80005 39.1799 6.44307 39.0952 7.54419C39.0789 7.75452 39.0274 7.98739 38.9604 8.21899C43.6681 12.2409 46.6391 18.1293 46.6391 24.6917C46.6391 36.8131 36.5056 46.6399 24.0053 46.6399C11.5052 46.6398 1.37152 36.813 1.37152 24.6917C1.37153 21.1246 2.24896 17.7562 3.80609 14.7786L2.05804 13.0305C2.0306 13.0125 0.841936 12.2315 0.685974 11.6604C0.474569 10.8852 1.18249 10.3824 1.3725 9.60181C1.68903 8.30051 3.42914 6.85864 3.42914 6.85864C3.42945 6.82959 3.45917 5.48043 6.1723 4.80298C8.27661 4.27755 10.2885 5.48657 10.2885 5.48657L10.9741 6.17212C10.9741 6.17212 12.8972 5.26227 14.4037 4.1145C15.6461 3.16798 17.8334 2.05688 17.8334 2.05688L20.5766 0.684814Z" fill="url(#paint0_linear_17_491)"/>
<path d="M14.243 14.9619C13.762 15.1208 13.3736 15.4738 13.1529 15.9549C12.8969 16.511 12.9808 16.9568 13.3339 16.9259C13.4751 16.9126 13.5104 16.8861 13.634 16.6699C13.8811 16.2462 13.9738 16.1447 14.2121 16.0255C14.4019 15.9284 14.4814 15.9108 14.6623 15.9328C15.1037 15.9858 15.3508 16.1932 15.7083 16.8111C15.9819 17.2834 16.1011 17.376 16.3085 17.2834C16.4365 17.226 16.516 17.0274 16.516 16.7582C16.516 16.33 16.207 15.6548 15.876 15.3591C15.5185 15.0325 15.2802 14.9354 14.8168 14.9177C14.5696 14.9089 14.3534 14.9266 14.243 14.9619Z" fill="#3C3C3C"/>
<path d="M15.3375 8.02787C14.7373 8.08966 14.2121 8.34123 13.7398 8.78699C13.3559 9.15331 13.2411 9.45342 13.4397 9.58141C13.5766 9.6741 13.7266 9.62555 13.9738 9.40046C14.2695 9.13565 14.6976 8.91057 15.1124 8.80464C15.4302 8.7252 15.5582 8.71637 16.0569 8.73844C16.5954 8.76492 16.6395 8.76051 16.7145 8.68107C16.8072 8.57956 16.816 8.40302 16.7322 8.30151C16.5556 8.08525 15.9289 7.96167 15.3375 8.02787Z" fill="#3C3C3C"/>
<path d="M27.6691 8.87583C27.4749 8.94644 27.4925 8.93761 27.4219 9.0656C27.3645 9.18035 27.4219 9.36131 27.5367 9.4231C27.5808 9.44958 27.85 9.4893 28.1369 9.52019C28.9931 9.60405 29.4742 9.81148 30.1406 10.3896C30.4496 10.6545 30.5952 10.6898 30.71 10.5132C30.8026 10.372 30.7497 10.2087 30.4937 9.8821C30.1759 9.46723 29.5757 9.08767 28.9711 8.92437C28.6047 8.82286 27.8809 8.79638 27.6691 8.87583Z" fill="#3C3C3C"/>
<path d="M23.2039 15.4209C22.6742 15.4474 21.7827 15.5798 21.284 15.6989C19.4745 16.1447 18.6845 16.8729 18.861 17.941C18.9449 18.4706 19.3597 19.0443 20.0747 19.6269C20.697 20.1389 21.1516 20.3772 21.8798 20.5714C22.3035 20.6817 22.2859 20.642 22.2947 21.5733C22.3035 22.5354 22.3388 22.4648 21.7783 22.553C20.2557 22.7958 19.0199 22.5045 17.6429 21.5821C17.3516 21.3835 17.0735 21.1849 17.0294 21.1319C16.9456 21.0392 16.9456 21.0348 17.0515 20.8097C17.1839 20.5317 17.1971 20.0418 17.078 19.8167C16.9279 19.5342 16.8485 19.5916 16.7646 20.0285C16.6984 20.386 16.5792 20.6376 16.3277 20.9642C16.2394 21.0834 16.1644 21.1937 16.1644 21.2069C16.1688 21.3129 16.2747 21.3791 16.4601 21.3879C16.491 21.3923 16.5307 21.4453 16.5439 21.5115C16.5616 21.5821 16.5925 21.6615 16.619 21.688C16.641 21.7189 16.6498 21.7454 16.6322 21.7454C16.5881 21.7454 16.9985 22.8532 17.2721 23.4666C17.9827 25.0467 18.9051 26.2604 20.0482 27.1033C21.6282 28.2729 23.0538 28.3568 24.4617 27.3593C24.8457 27.0857 24.8942 27.0415 25.4018 26.5561C26.1874 25.8058 26.6861 25.1835 27.2598 24.239C27.6747 23.5549 28.0234 22.7605 28.2131 22.0764C28.3367 21.6262 28.3588 21.5997 28.6236 21.6527C29.0032 21.7233 29.0605 21.5556 28.7648 21.2511C28.6015 21.0834 28.4382 20.7656 28.4338 20.6199C28.4338 20.3949 28.1469 20.2404 28.0013 20.386C27.9307 20.4566 27.9395 20.9333 28.0145 21.1496C28.0498 21.2467 28.0807 21.3614 28.0807 21.4011C28.0807 21.5335 27.5908 21.9175 27.1318 22.1426C26.0329 22.681 24.753 22.8443 23.451 22.606C23.1244 22.5486 22.8419 22.4824 22.8199 22.4604C22.7978 22.4383 22.8111 22.2971 22.8552 22.1161C22.8949 21.9484 22.939 21.5424 22.9479 21.2025C22.9611 20.8715 22.9788 20.5979 22.9832 20.5979C22.992 20.5979 23.1465 20.567 23.3318 20.5317C24.0424 20.3993 24.9472 19.9491 25.4635 19.4769C26.8891 18.1705 26.8714 16.5022 25.4194 15.796C25.2208 15.6989 24.9383 15.5886 24.7927 15.5489C24.5544 15.4871 23.6231 15.3767 23.5128 15.3988C23.4907 15.4032 23.3495 15.412 23.2039 15.4209ZM24.6162 16.1226C24.9163 16.1976 25.234 16.3654 25.2738 16.4801C25.3179 16.586 25.1767 16.7626 24.9648 16.8685C24.7486 16.9744 24.1174 17.0097 23.7644 16.9347C23.4378 16.8685 23.1421 16.7229 23.0361 16.5772C22.9302 16.4316 22.9876 16.3256 23.2347 16.1844C23.5525 16.0079 24.0557 15.9858 24.6162 16.1226ZM23.7246 20.364C23.6937 20.3728 23.6408 20.3728 23.6143 20.364C23.5834 20.3507 23.6055 20.3419 23.6673 20.3419C23.7291 20.3419 23.7511 20.3507 23.7246 20.364ZM22.608 25.7793C23.0538 25.8102 23.7511 25.9117 23.8879 25.9691C23.9232 25.9823 23.963 26 23.9762 26.0044C23.9894 26.0088 24.1174 26.0485 24.2631 26.0926C24.4087 26.1368 24.5588 26.1897 24.5941 26.2074C24.6294 26.2295 24.7397 26.278 24.8368 26.3177L25.0134 26.3884L24.7839 26.5914C24.6603 26.7061 24.4793 26.8385 24.3867 26.8871C24.294 26.9356 24.2101 26.9842 24.1969 26.9974C24.1836 27.0151 24.1042 27.0504 24.0203 27.0857C23.9365 27.1166 23.8482 27.1651 23.8217 27.1916C23.7997 27.2225 23.6496 27.3019 23.4907 27.3681C23.2436 27.4785 23.1332 27.5005 22.6963 27.5182C22.4183 27.527 22.074 27.5138 21.9328 27.4873C21.6327 27.4343 21.0633 27.2181 21.0633 27.1651C21.0633 27.1431 21.0457 27.1342 21.0236 27.1475C20.9309 27.2048 19.8629 26.5208 19.6554 26.2736C19.4921 26.0794 20.953 25.7219 21.8357 25.744C22.0078 25.7484 22.3521 25.7616 22.608 25.7793Z" fill="#3C3C3C"/>
<path d="M29.2631 15.8052C28.6629 15.9773 28.151 16.4275 27.9656 16.9439C27.8817 17.1866 27.917 17.4117 28.0494 17.4602C28.173 17.5088 28.2613 17.4602 28.5835 17.1734C28.888 16.8997 29.219 16.7541 29.6118 16.7232C30.2165 16.679 30.6269 16.9924 30.7902 17.6235C30.8608 17.8928 30.9447 17.9943 31.1036 17.9943C31.2139 17.9943 31.364 17.8442 31.4302 17.6721C31.5096 17.4602 31.4875 17.0056 31.3816 16.7276C31.2536 16.3833 30.8785 16.0126 30.521 15.8714C30.2032 15.7522 29.5721 15.7169 29.2631 15.8052Z" fill="#3C3C3C"/>
<path d="M8.81911 25.6234C8.85203 25.6184 8.88578 25.6266 8.91324 25.6462C8.94071 25.6659 8.95943 25.6954 8.9669 25.7279C9.01111 25.9085 9.06588 26.0997 9.1228 26.2852C9.64838 27.9469 10.4086 29.5617 11.6056 30.7338C11.722 30.8462 11.8424 30.9535 11.9675 31.0554C13.1637 32.0268 14.5772 32.7377 16.0989 33.1409C16.2817 33.1884 16.4806 33.2338 16.6592 33.2639C16.6922 33.2687 16.7231 33.2851 16.7449 33.3109C16.7667 33.3367 16.7776 33.3696 16.7752 33.4029C16.7728 33.4361 16.7573 33.4672 16.7321 33.4896C16.7069 33.5121 16.674 33.5238 16.6406 33.5239C16.4362 33.5206 16.2326 33.5017 16.0355 33.4783C14.4135 33.2728 12.8373 32.6266 11.5344 31.5948C11.3907 31.4809 11.2536 31.3603 11.1227 31.2339C9.77532 29.9081 9.09986 28.1256 8.78875 26.3639C8.75567 26.1655 8.72741 25.9682 8.7092 25.7672C8.70662 25.7339 8.71569 25.7002 8.73606 25.6733C8.75642 25.6463 8.78618 25.6284 8.81911 25.6234Z" fill="#3C3C3C"/>
<path d="M31.1764 32.5745C32.1964 31.8646 33.1168 30.9985 34.2988 29.6439C34.8946 28.9627 35.0557 28.8147 34.9759 29.0373C34.9579 29.0843 34.973 29.0561 34.9533 29.0874L34.9137 29.15C34.9137 29.15 34.8362 29.325 34.7454 29.48C34.6549 29.6307 34.579 29.7695 34.5777 29.7826C34.5763 29.7958 34.4802 29.9592 34.3599 30.1423C33.7386 31.1226 32.6774 32.2009 31.7236 32.8243C31.3631 33.0588 30.5547 33.4705 30.0844 33.6497C29.669 33.8123 29.2039 33.9388 29.1679 33.8997C29.1525 33.876 29.8169 33.4411 30.1502 33.2571C30.3711 33.1328 30.39 33.1214 31.1764 32.5745Z" fill="#3C3C3C"/>
<path d="M8.02617 10.0752C8.3383 10.3985 8.63967 10.9722 8.63967 10.9722L7.78675 12.5119C7.78675 12.5119 7.31648 12.4646 7.02362 12.3923C6.75452 12.3259 6.60956 12.2659 6.35026 12.168C5.9856 12.0304 5.43749 11.7644 5.43749 11.7644C5.43749 11.7644 5.75518 11.8005 5.81158 11.6598C5.8826 11.4826 5.36267 11.4655 5.36267 11.4655C5.36267 11.4655 5.51567 11.4445 5.57216 11.3758C5.68495 11.2386 5.36267 10.9722 5.36267 10.9722C5.36267 10.9722 5.59869 11.0478 5.76668 11.0778C5.98797 11.1174 6.21559 10.9722 6.21559 10.9722C6.21559 10.9722 6.45464 10.7958 6.51486 10.6283C6.67856 10.1731 5.43749 10.0154 5.43749 10.0154C5.43749 10.0154 5.86306 9.59161 6.21559 9.49225C6.58746 9.38744 6.83586 9.43228 7.20318 9.55204C7.56534 9.67012 7.7617 9.80132 8.02617 10.0752Z" fill="#3C3C3C"/>
<path d="M34.2264 20.3898C34.2264 21.1211 33.152 21.7139 31.8266 21.7139C30.5012 21.7139 29.4268 21.1211 29.4268 20.3898C29.4268 19.6586 30.5012 19.0658 31.8266 19.0658C33.152 19.0658 34.2264 19.6586 34.2264 20.3898Z" fill="#FFE1E1"/>
<path d="M14.8954 19.7891C14.8954 20.5752 13.7468 21.2124 12.33 21.2124C10.9132 21.2124 9.76471 20.5752 9.76471 19.7891C9.76471 19.003 10.9132 18.3657 12.33 18.3657C13.7468 18.3657 14.8954 19.003 14.8954 19.7891Z" fill="#FFE1E1"/>
<path d="M33.3662 9.64132C32.941 8.52509 32.4743 7.72455 31.4524 6.64741C31.4376 6.63174 31.4408 6.60618 31.4597 6.59577C31.6164 6.50958 32.2386 6.17411 32.6887 6.02939C33.3024 5.83211 33.9723 5.68756 34.6143 5.74431C34.9455 5.77359 35.239 5.90352 35.3681 5.96845C35.3943 5.98165 35.3897 6.01846 35.3613 6.02603L34.3145 6.30511C34.2868 6.31249 34.2815 6.34824 34.3065 6.36225C34.3934 6.41089 34.5526 6.48916 34.6809 6.49096C34.8579 6.49343 35.2599 6.40737 35.5342 6.34304C35.5726 6.33406 35.5958 6.3938 35.5616 6.41333C35.3522 6.53295 35.0868 6.69713 35.0743 6.76744C35.052 6.89377 35.4852 7.06666 35.4852 7.06666C35.4852 7.06666 35.1268 6.97763 35.0383 7.06666C34.7467 7.36028 35.0557 7.87659 35.1647 8.03772C35.1794 8.05946 35.1656 8.09007 35.1395 8.09267C34.8605 8.12044 33.7162 8.26152 33.9345 8.69058C33.9991 8.81744 34.3382 8.97481 34.196 8.98118C33.7827 8.99969 33.5887 9.10779 33.4975 9.29C33.4599 9.36509 33.451 9.49717 33.453 9.62284C33.4536 9.66263 33.3804 9.67851 33.3662 9.64132Z" fill="#3C3C3C"/>
<path fill-rule="evenodd" clip-rule="evenodd" d="M23.4447 1.70967C23.5078 1.77901 22.3946 1.70967 24.1773 1.70967C25.9603 1.70967 28.6459 2.16643 29.5441 2.41138C30.4422 2.65632 30.0451 2.54822 30.2767 2.60999C30.5084 2.67178 30.8637 2.78653 31.0623 2.85715C31.2609 2.92776 31.2795 3.00826 31.4294 2.99563C31.5793 2.983 31.1286 3.18371 31.7905 2.74682C32.4525 2.3099 33.2249 2.04288 33.8737 1.92592C34.5225 1.80897 34.3813 1.83102 35.3037 1.85529C36.2261 1.87957 36.7491 1.9524 37.4663 2.23486C38.1834 2.51732 38.8609 2.97633 39.2228 3.31617C39.5847 3.65599 39.5406 3.62069 39.5406 3.87226C39.5406 4.12382 39.192 4.46805 38.9801 4.5122C38.7682 4.55633 38.8344 4.56516 38.8344 4.59605C38.8344 4.62691 38.8234 4.62264 38.9492 4.93589C39.075 5.24927 39.2802 6.08782 39.3067 6.71452C39.3332 7.34119 39.2789 7.06801 39.3332 7.28386C39.3875 7.49971 39.801 7.75172 40.3748 8.32544C40.9485 8.89915 40.6992 8.47773 41.8886 9.94077C43.078 11.4039 45.5562 15.7224 46.2756 18.013C46.9949 20.3036 47.1296 21.9013 47.22 23.2033C47.3105 24.5052 47.3436 25.0282 47.1582 26.8002C46.9729 28.5723 45.8916 32.5554 44.9603 34.4267C44.0291 36.298 43.8216 36.7151 42.2416 38.6283C40.6616 40.5416 37.1286 43.5714 34.3062 44.9793C31.4838 46.3872 28.1097 47.1507 26.2163 47.3758C24.323 47.6009 23.0938 47.5789 21.4233 47.3979C19.7528 47.2169 15.9594 46.2857 14.3617 45.6325C12.7641 44.9793 11.8218 44.4298 10.5794 43.6156C9.33702 42.8013 7.90704 41.6229 6.65583 40.3717C5.40463 39.1205 5.67823 39.5794 4.16223 37.4588C2.64621 35.3381 0.379884 29.0445 0.154779 26.9547C0.0997969 26.4442 0.0673249 26.1439 0.0493017 25.9783C0.0176346 25.5465 -0.049961 24.0634 0.0621024 23.0267C0.185679 21.8836 0.48579 19.8601 0.900651 18.4279C1.31551 16.9957 1.74366 15.8636 2.3174 14.725C2.8911 13.5864 2.53658 14.478 2.51601 14.3234C2.49548 14.1686 2.40564 14.1821 2.27324 14.0056C2.14085 13.829 2.01064 13.6348 1.89368 13.4009C1.77673 13.167 1.69507 13.0523 1.54502 13.0523C1.39498 13.0522 1.15446 12.8647 1.10808 12.7654C1.06174 12.6661 1.04852 12.6065 1.02866 12.4785C1.0088 12.3505 1.02423 12.3086 0.838877 12.2755C0.653528 12.2424 0.540947 12.1938 0.437237 12.0239C0.333524 11.854 0.260709 11.94 0.437237 11.075C0.613776 10.21 1.45457 8.31443 2.20265 7.33684C2.95072 6.35927 3.95697 5.56924 4.43144 5.3331C4.90585 5.09699 4.71835 5.20727 4.71832 5.05064C4.71833 4.89397 4.76027 4.69317 5.014 4.56518C5.26779 4.43719 6.53665 4.35554 6.93829 4.4416C7.33987 4.52765 7.17001 4.52102 7.31343 4.38862C7.45687 4.25621 7.59811 4.18119 7.82539 4.18119C8.05269 4.1812 8.46978 4.38422 8.93318 4.72845C9.39651 5.07265 9.15155 4.96923 9.24211 4.95796C9.33272 4.94673 9.05681 5.07709 9.44072 4.83438C9.82469 4.59165 10.3102 4.84321 10.4205 5.09919C10.5308 5.3551 10.5176 5.31546 10.5265 5.32427C10.5352 5.33316 10.465 5.38803 10.9281 5.09919C11.3915 4.81011 13.0222 3.93187 13.3246 3.80605C13.6269 3.68028 13.4526 3.7597 13.788 3.60745C14.1234 3.45519 15.2046 3.04256 15.346 3.01163C15.4872 2.98073 15.6439 2.86597 15.8358 2.72474C16.0278 2.58352 16.2551 2.42022 16.339 2.36283C16.4228 2.30545 16.617 2.17305 16.7715 2.06272C16.9259 1.95242 17.0892 1.84433 17.129 1.81999C17.1687 1.7957 17.1666 1.79569 17.8087 1.40513C18.4508 1.01454 19.9933 0.334871 20.6068 0.164942C21.2202 -0.00494052 21.1012 0.0303015 21.1585 0.0104599C21.2159 -0.00940175 21.3549 -0.00497259 21.5469 0.0590124C21.7388 0.123001 21.7301 0.134035 22.0235 0.0590124C22.317 -0.0160134 22.6127 0.0568109 22.8047 0.231144C22.9967 0.405471 22.968 0.445202 22.968 0.637181C22.968 0.82914 22.957 0.924046 22.9327 1.00349C22.9085 1.08292 22.9394 1.13372 23.0563 1.1977C23.1732 1.2617 23.2549 1.36542 23.3299 1.49781C23.4049 1.63018 23.3812 1.64028 23.4447 1.70967ZM21.7044 1.29312C22.565 0.591402 22.4259 0.600234 21.7838 0.816489C21.1416 1.03275 20.2876 1.4763 19.8992 1.71241C19.5109 1.9485 19.7337 1.82054 19.811 1.72124C19.8883 1.6219 20.7664 0.937912 20.9364 0.838567C21.1063 0.739279 21.135 0.781132 21.135 0.701735C21.1348 0.622395 19.1754 1.31744 18.4119 1.76979C17.6484 2.22217 16.9157 2.72754 16.2581 3.22184C16.1866 3.27556 16.1217 3.32428 16.0626 3.3685C15.5987 3.57115 15.1003 3.82015 14.5915 4.10862C13.6054 4.66769 12.7666 5.26899 12.2079 5.78908C12.0497 5.89719 11.8987 6.00497 11.7558 6.11155C11.7505 6.09283 11.7459 6.08221 11.7424 6.12157C11.3412 6.42179 11.0048 6.71241 10.7534 6.97486C10.556 7.12832 9.9403 7.70996 9.92514 7.77013C9.77552 7.90078 9.65079 8.04175 9.55541 8.18512C9.54586 8.17061 9.56501 8.06553 9.66441 7.68825C9.77253 7.27779 9.8961 6.32891 9.87184 5.77282C9.84756 5.21674 9.7262 5.41754 9.58938 5.77282C9.45258 6.12805 9.44592 6.08617 9.41282 6.0994C9.37974 6.11264 9.3643 6.13915 9.37752 6.16121C9.39072 6.18325 9.37308 6.20092 9.34222 6.20093C9.31133 6.20091 9.26714 6.16551 9.15684 5.92727C9.04648 5.68894 8.68458 5.29393 8.27856 5.04017C7.87255 4.78641 7.7578 4.74009 7.92107 4.92984C8.08436 5.11961 8.29177 5.44619 8.31386 5.57861C8.33592 5.71097 8.35263 5.66398 8.33594 5.71544C8.3194 5.76696 8.66679 5.92719 8.08878 5.55656C7.51062 5.18584 6.73603 4.99825 6.00561 5.00487C5.27523 5.01149 5.32157 5.05343 5.93941 5.25203C6.55726 5.45062 6.52657 5.24855 6.4602 5.41973C6.39385 5.59088 6.48223 5.41534 5.99679 5.49918C5.51131 5.58305 4.89343 5.82577 4.48739 6.0332C4.08137 6.24062 4.0703 6.28037 3.67089 6.65992C3.3493 6.96552 2.97912 7.42568 2.87931 7.59337C2.85518 7.61726 2.83119 7.64162 2.80742 7.66646C2.50784 7.97955 2.28517 8.3195 2.15396 8.63709C2.11466 8.6783 2.07187 8.72812 2.02909 8.78281C1.89447 8.95499 1.61424 9.62795 1.55685 9.79789C1.49948 9.9678 1.42884 10.1775 1.36264 10.3717C1.29648 10.5658 1.25678 10.729 1.27879 10.738C1.30085 10.7468 1.31851 10.7711 1.31852 10.7953C1.31851 10.8196 1.31203 10.8329 1.27879 10.813C1.2455 10.7932 1.142 11.091 1.14199 11.1881C1.14199 11.2852 1.15083 11.2433 1.18172 11.1926C1.21261 11.1418 1.23025 11.1594 1.24349 11.2146C1.25673 11.2698 1.25454 11.2168 1.24792 11.1131C1.2413 11.0094 1.25895 10.9123 1.28322 10.8968C1.3075 10.8814 1.32955 10.8572 1.31852 10.9498C1.3075 11.0425 1.32958 11.144 1.36707 11.144C1.40456 11.144 1.40901 11.1352 1.38472 11.0955C1.36045 11.0556 1.45315 10.9256 1.62306 10.8351C1.79299 10.7446 1.83268 10.8218 1.74221 11.2411C1.65174 11.6604 1.60321 12.1503 1.64513 12.318C1.68706 12.4856 1.77311 12.3025 1.84814 12.0046C1.92314 11.7068 1.95408 11.6383 1.97614 11.6162C1.9982 11.5942 1.99601 11.4928 2.06882 11.8811C2.1011 12.0532 2.23223 12.3987 2.37319 12.7216C2.45618 13.1186 2.74703 13.5879 3.19325 13.9854C3.4175 14.1852 3.65531 14.3439 3.8876 14.457C3.91907 14.4763 3.95597 14.4963 3.9975 14.5159C4.15191 14.5887 4.27327 14.6306 4.29761 14.6262C4.32192 14.6218 4.45872 14.6681 4.60215 14.7321C4.74555 14.7961 4.88452 14.8513 4.91108 14.8513C4.9376 14.8513 5.09868 14.9109 5.26856 14.9837C5.43848 15.0565 5.68124 15.1382 5.83351 15.1691C5.98576 15.2 6.08504 15.2353 6.08507 15.2838C6.08483 15.3329 5.49366 16.7823 5.35245 17.0934C5.21124 17.4045 5.24651 17.3053 5.24652 17.3582C5.24614 17.4119 4.34841 19.2206 4.22701 19.406C4.10565 19.5914 4.03281 19.7084 3.92248 19.8827C3.81215 20.057 3.7349 20.1938 3.67971 20.2534C3.62447 20.3131 3.36636 20.708 3.2825 20.9066C3.19866 21.1052 3.23618 21.1581 3.33988 21.0655C3.4436 20.9728 3.58705 20.8669 3.74592 20.761C3.90473 20.6551 4.04154 20.5536 4.05488 20.5403C4.06813 20.527 4.09905 20.5006 4.17846 20.4608C4.25791 20.4211 4.26674 20.4299 4.22701 20.5094C4.18729 20.5888 4.18284 20.6043 4.14313 20.633C4.10334 20.6619 3.92248 21.0688 3.92248 21.0688L3.90483 21.092C3.90485 21.0925 3.90451 21.1029 3.85628 21.135C3.80666 21.1681 3.85844 21.1406 3.74592 21.3391C3.63339 21.5377 3.48118 21.8908 3.49879 21.9394C3.51643 21.9879 3.52964 22.0122 3.48554 21.9835C3.44136 21.955 3.24718 22.4977 3.14127 23.0383C3.03536 23.5789 3.05081 25.0022 3.1148 25.1126C3.17877 25.223 3.10379 25.5429 3.19425 25.0244C3.28473 24.5058 3.56941 23.4841 3.85628 22.9059C4.14309 22.3279 4.2645 22.1976 4.29322 22.2262C4.32189 22.2548 4.33732 22.1492 4.23584 22.6896C4.13433 23.2303 4.04824 24.1549 4.0681 24.839C4.08796 25.5231 4.06372 25.5518 4.16081 26.0306C4.2579 26.5095 4.58 27.6412 4.62423 27.668C4.66833 27.6944 4.65289 27.5774 4.6551 27.1296C4.6573 26.6816 4.69043 26.2425 4.7831 25.682C4.87578 25.1215 5.03906 24.7265 5.10969 24.7022C5.18029 24.6779 5.16484 24.8015 5.14498 25.1788C5.12513 25.5562 5.12072 25.6754 5.18471 26.0748C5.24418 26.4459 5.39426 26.9084 5.41952 26.9969C5.42246 27.0135 5.42768 27.0424 5.4363 27.0899C5.47545 27.3053 5.71017 27.8722 5.81143 28.0608C5.91266 28.2494 5.75631 27.958 5.83791 28.1094C5.91953 28.2609 6.07184 28.7118 6.17335 28.8641C6.27483 29.0163 6.25721 28.9899 6.2925 29.0627C6.3257 29.1311 6.72534 29.7227 6.78788 29.7893C6.80345 29.8275 6.82203 29.8656 6.84364 29.903C6.88719 29.9785 6.93909 30.0444 6.99573 30.0992C6.99728 30.1083 7.03193 30.1558 7.15312 30.3073C7.40029 30.6163 8.05125 31.8101 8.20353 32.2492C8.35573 32.6882 8.33155 32.5957 8.33594 32.5714C8.34035 32.5471 8.34919 32.4721 8.35801 32.4037C8.36684 32.3353 8.35579 32.2846 8.32711 32.2845C8.29845 32.2845 8.30066 32.2624 8.33594 32.2183C8.37124 32.1742 8.38669 31.9005 8.38449 31.4813C8.38228 31.0621 8.38006 30.7664 8.37124 30.7177C8.36243 30.6692 8.38671 30.6251 8.42861 30.6162C8.47054 30.6074 8.51028 30.6317 8.60957 30.8369C8.70888 31.0422 8.99794 31.8674 8.99796 32.0109C8.99796 32.0389 9.00144 32.0631 9.00791 32.0834C9.02056 32.2124 9.05962 32.3291 9.11691 32.4218C9.12582 32.4714 9.13924 32.5299 9.15684 32.5935C9.21419 32.8008 9.22525 32.867 9.22747 32.9024C9.22823 32.9145 9.23263 32.9289 9.23962 32.9439C9.24543 33.0032 9.25681 33.0599 9.27298 33.1129C9.31129 33.2895 9.44976 33.8232 9.54965 34.072C9.66662 34.3633 10.0064 34.9591 10.3087 35.4225C10.611 35.8859 10.4235 35.6829 10.322 35.6829C10.2204 35.6828 9.60922 35.0805 9.43047 34.8443C9.25173 34.6082 8.96487 33.9816 8.90968 33.8072C8.85453 33.6329 8.84135 33.6109 8.82583 33.5865C8.8103 33.5621 8.79935 33.5754 8.79935 33.5115C8.79935 33.4475 8.79713 33.26 8.66695 33.5909C8.53674 33.9219 8.23662 34.3302 7.8637 34.5001C7.49079 34.67 7.3782 34.6678 7.2458 34.6104C7.11341 34.5531 7.00312 34.7075 7.20611 34.4207C7.37068 34.1881 7.60339 33.5002 7.63742 33.2198C7.64564 33.1892 7.65235 33.1571 7.65704 33.1239C7.66076 33.0975 7.66303 33.0714 7.66412 33.0461C7.70857 32.967 7.61489 32.239 7.47531 31.9844C7.32531 31.7109 7.4641 31.8787 7.41354 31.8652C7.36293 31.8517 7.4091 31.8432 7.40911 32.0418C7.40909 32.2404 7.19727 33.0083 7.11783 33.1893C7.0384 33.3702 7.04722 33.3239 7.03397 33.3879C7.02071 33.452 6.94786 33.7212 6.66324 34.2485C6.37857 34.7759 5.88867 35.5505 5.61283 35.9168C5.33712 36.283 5.4318 36.1971 5.44952 36.2213C5.46718 36.2456 5.49134 36.2502 5.5069 36.2302C5.52246 36.2102 5.56429 36.1772 5.68785 36.1154C5.81144 36.0536 6.00121 35.9367 6.20422 35.8021C6.40718 35.6675 6.38301 35.6829 6.41608 35.6829C6.44923 35.6828 6.74036 35.4736 6.72501 35.4578C6.70947 35.4422 6.75375 35.4313 6.81329 35.4269C6.87285 35.4225 6.92358 35.4314 6.92362 35.4446C6.92353 35.4579 6.88587 35.5243 6.67206 35.8197C6.45801 36.1154 6.13142 36.6098 5.88206 37.0246C5.73935 37.262 5.69854 37.3463 5.70091 37.3831L5.62608 37.4041C5.62592 37.4059 5.61774 37.4996 5.6702 37.5542C5.72314 37.6094 5.71653 37.6248 5.69228 37.6248C5.67102 37.6248 5.62267 37.5707 5.61099 37.5572L5.5731 37.6072C5.57444 37.6078 5.64371 37.6406 5.64373 37.6734C5.64419 37.707 6.33659 38.5714 6.42051 38.6443C6.50438 38.7172 6.6412 38.865 6.80889 39.0504C6.97577 39.2348 7.15145 39.3625 7.15312 39.3637C7.17281 39.3506 7.18812 39.3981 7.18842 39.399L7.899 40.0743L7.92107 40.092C7.92353 40.0946 8.17071 40.3613 8.34592 40.5073C8.3861 40.5574 8.4283 40.6066 8.47248 40.6548C8.47555 40.6678 8.49308 40.6896 8.53454 40.7319C8.55856 40.7565 8.59289 40.7859 8.63145 40.8163C8.91509 41.0849 9.26271 41.3196 9.65891 41.5094C9.88232 41.7545 10.1564 41.9755 10.4711 42.1654C10.5405 42.2934 10.6359 42.4018 10.7722 42.4885C10.822 42.5202 10.8703 42.5507 10.9168 42.5799C10.6542 41.7765 10.843 40.8553 11.146 40.1473C11.1989 40.0237 11.2564 39.9017 11.3205 39.7874C11.2872 39.9139 11.2601 40.0445 11.2363 40.1745C11.0432 41.2542 11.0761 42.47 11.8344 43.1292C11.8809 43.1708 11.9291 43.2125 11.9775 43.253C11.992 43.265 12.0066 43.2768 12.0212 43.2887C12.3923 43.5248 12.7452 43.7062 13.0246 43.8118C13.0446 43.8246 13.0608 43.8354 13.0716 43.8434L13.1066 43.8484L13.1819 43.8787C13.1891 43.8824 14.4401 44.5232 14.5942 44.5716C14.6227 44.5806 14.6446 44.5849 14.6609 44.5856C15.1313 44.8779 15.6959 45.0998 16.3195 45.2269C16.3906 45.25 16.4679 45.2693 16.5185 45.2734C16.6575 45.2844 16.6686 45.28 16.6509 45.3087C16.6334 45.3374 16.8627 45.3925 16.9069 45.3661C16.951 45.3396 16.9422 45.3528 16.9246 45.3837C16.9069 45.4146 16.8871 45.4389 16.951 45.4455C17.015 45.4521 17.1099 45.4742 17.1673 45.4985C17.2247 45.5227 17.2865 45.5338 17.3438 45.5426C17.4012 45.5514 17.4718 45.5669 17.5733 45.6088C17.6748 45.6507 17.9286 45.7081 18.0279 45.7191C18.1272 45.7302 18.1007 45.7059 18.1868 45.7765C18.2251 45.8079 18.6097 45.897 19.1108 45.9963C18.5013 45.6121 17.9325 45.1576 17.4362 44.6161C17.3918 44.567 17.3481 44.5172 17.3052 44.4666C17.1621 44.301 17.0412 44.1234 16.9407 43.937C16.3956 43.8814 15.8386 43.6723 15.4407 43.2269C15.4081 43.1897 15.3777 43.1511 15.3495 43.1111C14.9334 42.4852 14.9892 41.7521 15.1579 41.1273C15.1781 41.0573 15.2005 40.9863 15.2262 40.9201C15.2266 40.991 15.2293 41.0644 15.2329 41.136C15.2727 41.7749 15.3596 42.4237 15.6741 42.8821C15.6951 42.9119 15.7172 42.9406 15.7404 42.9683C16.0197 43.2981 16.4104 43.5478 16.8451 43.7436C16.454 42.8776 16.4688 41.8578 16.7344 40.9944C16.7751 40.8608 16.8194 40.7319 16.8769 40.5992C16.8869 40.5775 16.9042 40.5596 16.9262 40.5499C16.9483 40.5401 16.973 40.5392 16.9953 40.5475C17.0176 40.5557 17.0358 40.5725 17.0462 40.5943C17.0566 40.616 17.0581 40.6409 17.0515 40.6638C17.0194 40.7866 16.9938 40.9197 16.9733 41.0495C16.7975 42.1626 16.9729 43.338 17.6825 44.1448C17.7224 44.1912 17.763 44.2373 17.8043 44.2829C18.4626 45.0022 19.2473 45.6202 20.0803 46.1742C20.4478 46.2365 20.8065 46.2909 21.0909 46.3238C22.064 46.4363 22.3598 46.4275 23.6065 46.4297C24.8533 46.4319 25.18 46.4385 25.8133 46.3723C26.4466 46.3061 27.4108 46.1781 27.5345 46.1428C27.5506 46.1382 27.5658 46.1339 27.5805 46.1298C28.1933 46.0905 28.7687 45.9627 29.2797 45.7652C29.6791 45.6982 30.5512 45.4733 31.7715 44.9821C32.0835 44.8565 32.4279 44.7042 32.7911 44.533C32.7177 44.0982 32.6939 43.6553 32.7215 43.2125C32.7318 43.0613 32.7569 42.9168 32.7911 42.7776C32.9836 42.0335 33.3806 41.4203 33.853 40.88C33.906 40.8206 33.9609 40.7609 34.0175 40.7038C34.0413 40.6803 34.0718 40.6629 34.1054 40.6577C34.139 40.6525 34.1727 40.6596 34.2 40.678C34.2272 40.6965 34.2463 40.7252 34.2538 40.7584C34.2614 40.7916 34.2565 40.8263 34.2435 40.8571C34.2169 40.9241 34.1863 40.9989 34.1585 41.0696C33.9086 41.7132 33.6526 42.3465 33.4983 42.9513C33.4707 43.0634 33.4482 43.1739 33.4337 43.2805C33.3911 43.6108 33.3499 43.9444 33.3102 44.2817C34.8265 43.5291 36.5424 42.5244 37.5752 41.747C38.9853 40.6856 38.9853 40.6215 39.7554 39.8624C40.5254 39.1035 41.3041 38.2321 41.3046 38.1853C41.3045 38.139 41.2494 38.0838 41.0839 37.9029C40.9184 37.7219 40.2146 36.738 40.1791 36.645C40.1438 36.5524 40.2895 36.57 40.5852 36.5523C40.8809 36.5347 41.0927 36.5104 41.459 36.4155C41.8253 36.3207 42.6284 35.9478 42.6286 35.8815C42.6286 35.8154 42.6265 35.8175 42.6198 35.8153C42.6131 35.8131 42.6283 35.8153 42.43 35.7888C42.2314 35.7623 41.6929 35.6564 41.256 35.4975C40.8191 35.3387 40.3865 35.0827 39.826 34.5178C39.2656 33.9529 39.1603 34.1033 39.2964 33.9837C39.4326 33.8641 39.3053 33.9837 39.7598 33.9572C40.2144 33.9308 40.6602 33.7785 40.797 33.6792C40.9338 33.5799 40.8742 33.6152 40.4175 33.3923C39.9607 33.1694 39.5281 32.8936 38.8904 32.3463C38.2526 31.799 37.2994 30.7443 37.0059 30.2985C36.7124 29.8527 36.3173 29.0892 36.207 28.8111C36.0967 28.5332 36.1387 28.7035 36.132 28.6258C36.1252 28.548 36.0614 28.7096 36.4233 28.2594C36.7852 27.8093 37.2442 27.1583 37.4957 26.6574C37.7473 26.1564 38.1798 24.636 38.2769 23.6562C38.374 22.6765 38.3299 22.9835 38.3299 23.1266C38.3299 23.2203 38.4226 23.259 38.5461 23.4223C38.6697 23.5856 38.8661 23.8967 38.9875 24.1152C39.1088 24.3336 39.2258 24.5167 39.2479 24.5168C39.2699 24.5166 39.2766 24.2584 39.2611 23.7753C39.2457 23.2921 39.2236 22.9787 39.1287 22.5528C39.0338 22.1269 38.7492 21.2553 38.6741 21.1096C38.5992 20.9642 38.6123 20.9838 38.6124 20.9728C38.6123 20.9618 38.5905 20.942 38.9522 21.1229C39.3141 21.3038 39.5325 21.3788 39.0758 20.8625C38.619 20.3461 37.4409 18.5591 37.5046 18.5586C37.5686 18.5587 37.8246 18.658 38.299 18.8234C38.7733 18.9889 39.0535 19.0639 39.0537 19.0264C39.0537 18.9889 39.0514 18.9624 38.8683 18.8455C38.6851 18.7285 37.3324 17.4641 36.7101 16.6609C36.0878 15.8576 35.3265 14.4232 34.8212 13.0065C34.316 11.5902 34.3732 11.6934 34.3842 11.6383C34.3953 11.5831 34.1989 11.6449 34.7726 11.4574C35.3464 11.2698 36.5137 10.6563 37.1117 10.0141C37.7098 9.37199 38.0827 8.28187 38.1136 7.61322C38.1445 6.94467 38.0563 6.38203 38.0165 6.27596C37.9768 6.17004 37.9879 6.20091 38.0298 6.20093C38.0717 6.20107 38.4336 6.90266 38.502 7.11451C38.5704 7.32628 38.5726 7.3484 38.6167 7.34841C38.6609 7.34828 38.7161 6.63558 38.5859 5.9979C38.4557 5.36016 37.7054 4.08472 37.3545 3.76911C37.0037 3.4536 37.2132 3.66091 37.253 3.61905C37.2928 3.57714 38.6255 3.81103 38.8021 3.88386C38.9786 3.95666 38.8772 3.9434 38.8772 3.87061C38.877 3.7977 37.8311 3.06958 37.509 2.92613C37.1868 2.78272 37.4008 2.87536 37.0897 2.73635C36.7785 2.59732 34.83 2.38106 34.0797 2.51566C33.3294 2.65028 32.4423 3.06294 32.0672 3.30126C31.6921 3.53955 31.7913 3.45355 31.7406 3.43367C31.6898 3.41382 31.6744 3.42487 31.6964 3.47779C31.7185 3.53072 31.778 3.51535 31.5596 3.66318C31.3411 3.81103 31.0388 4.0516 30.4827 4.57236C29.9267 5.09311 30.1481 5.11424 29.9178 5.10637C29.6875 5.09848 29.7015 4.95631 29.4323 4.77096C29.1631 4.58561 28.8873 4.40685 28.6909 4.30755C28.4945 4.20827 28.468 4.17294 28.5717 4.14867C28.6754 4.1244 28.8718 4.07364 29.0793 4.01627C29.2867 3.9589 29.5316 3.89932 29.6221 3.88386C29.7125 3.86842 29.7853 3.86396 29.7854 3.82648C29.7851 3.78889 28.6334 3.44691 28.0862 3.33217C27.539 3.21742 27.1969 3.13355 26.8946 3.05411C26.5923 2.97467 26.3539 2.95482 26.0163 2.91731C25.6788 2.8798 25.3919 2.84006 25.3631 2.81138C25.3347 2.78268 26.1025 2.71427 26.5371 2.71427C26.9718 2.71427 27.2454 2.72532 26.3208 2.55982C25.3962 2.39432 23.0152 2.26411 22.4679 2.33031C21.9208 2.39649 22.0992 2.36782 22.0795 2.34796C22.0598 2.32799 22.2538 2.08976 22.3443 2.01252C22.4348 1.93529 22.4635 1.9088 22.5429 1.84482C22.6223 1.78084 22.6466 1.73891 22.6047 1.69477C22.5627 1.65064 22.4479 1.65946 22.0883 1.73006C21.7286 1.80068 21.4461 1.90662 21.0953 2.07433C20.7446 2.24197 20.5549 2.32374 20.5348 2.30384C20.515 2.28371 20.844 1.99467 21.7044 1.29312ZM5.6084 37.5542C5.60854 37.5544 5.60947 37.5555 5.61099 37.5572L5.64373 37.5141L5.6084 37.5542ZM1.17871 11.3443C1.16768 11.2847 1.16326 11.267 1.13016 11.3487C1.09709 11.4303 1.139 11.481 1.16989 11.4502C1.20077 11.4193 1.18974 11.4038 1.17871 11.3443Z" fill="#3A30A0"/>
<path d="M83.3352 9.94473C84.0156 10.0764 84.5204 10.3069 84.8496 10.6361C85.2008 10.9653 85.3764 11.3494 85.3764 11.7883C85.3764 12.5126 85.1679 13.0394 84.7509 13.3686C84.3558 13.6978 83.7193 13.8295 82.8414 13.7636C80.8661 13.61 79.3188 13.5112 78.1994 13.4674C77.102 13.4015 75.6535 13.3576 73.8538 13.3357C73.0417 17.3741 72.2955 21.4344 71.6151 25.5167C71.3737 27.0092 71.1213 28.743 70.8579 30.7183C70.5945 32.6717 70.4189 34.2519 70.3311 35.4591C70.2872 36.0956 70.0239 36.5894 69.541 36.9406C69.0582 37.2698 68.4765 37.4344 67.7962 37.4344C67.0719 37.4344 66.5122 37.2588 66.1171 36.9076C65.7221 36.5565 65.5246 36.0956 65.5246 35.5249C65.5246 34.9982 65.6014 34.1312 65.755 32.9241C65.9306 31.695 66.1281 30.4111 66.3476 29.0723C66.589 27.7334 66.7756 26.5702 66.9073 25.5826C67.1487 23.9145 67.423 22.2575 67.7303 20.6114C68.0376 18.9653 68.3449 17.407 68.6521 15.9365C68.718 15.6073 68.7948 15.2342 68.8826 14.8171C68.9704 14.3782 69.0691 13.8953 69.1789 13.3686C67.028 13.4344 65.338 13.61 64.1089 13.8953C62.8798 14.1807 62.0019 14.5867 61.4752 15.1134C60.9704 15.6182 60.718 16.2767 60.718 17.0887C60.718 17.835 60.9375 18.5483 61.3764 19.2287C61.4642 19.3823 61.5081 19.5469 61.5081 19.7225C61.5081 20.1395 61.2557 20.5346 60.7509 20.9077C60.2681 21.2588 59.7633 21.4344 59.2365 21.4344C58.8634 21.4344 58.5561 21.3247 58.3147 21.1052C57.8757 20.7321 57.5136 20.2053 57.2283 19.525C56.943 18.8226 56.8003 18.0325 56.8003 17.1546C56.8003 15.289 57.4039 13.7966 58.611 12.6772C59.8401 11.5359 61.6947 10.7019 64.1748 10.1752C66.6768 9.64843 69.8812 9.38506 73.7879 9.38506C76.2022 9.38506 78.1226 9.42895 79.5492 9.51674C80.9978 9.60453 82.2598 9.74719 83.3352 9.94473ZM81.2499 37.4344C80.4159 37.4344 79.8233 36.9954 79.4721 36.1175C79.1429 35.2396 78.9783 33.8349 78.9783 31.9035C78.9783 29.0503 79.3844 26.3398 80.1964 23.7719C80.394 23.1354 80.7122 22.6745 81.1512 22.3891C81.6121 22.0819 82.2485 21.9282 83.0606 21.9282C83.4996 21.9282 83.8068 21.9831 83.9824 22.0928C84.158 22.2026 84.2458 22.4111 84.2458 22.7184C84.2458 23.0695 84.0812 23.8597 83.752 25.0887C83.5325 25.9666 83.3569 26.7348 83.2252 27.3933C83.0935 28.0517 82.9838 28.8638 82.896 29.8295C83.6203 27.9419 84.4324 26.4056 85.3322 25.2204C86.2321 24.0352 87.11 23.1902 87.966 22.6854C88.8439 22.1806 89.645 21.9282 90.3692 21.9282C91.7959 21.9282 92.5092 22.6415 92.5092 24.0682C92.5092 24.3535 92.4104 25.0448 92.2129 26.1422C92.0373 27.0201 91.9495 27.5688 91.9495 27.7883C91.9495 28.5565 92.2238 28.9406 92.7725 28.9406C93.3871 28.9406 94.1772 28.4577 95.1429 27.492C95.4282 27.2067 95.7245 27.064 96.0318 27.064C96.3171 27.064 96.5366 27.1957 96.6902 27.4591C96.8658 27.7005 96.9536 28.0297 96.9536 28.4467C96.9536 29.2588 96.7341 29.8953 96.2952 30.3562C95.6806 30.9927 94.9563 31.5414 94.1223 32.0023C93.3103 32.4413 92.4433 32.6607 91.5215 32.6607C90.3583 32.6607 89.4694 32.3644 88.8548 31.7718C88.2623 31.1793 87.966 30.3782 87.966 29.3686C87.966 29.0393 87.9989 28.7101 88.0647 28.3809C88.1086 27.9419 88.1306 27.6457 88.1306 27.492C88.1306 27.1409 88.0099 26.9653 87.7684 26.9653C87.4392 26.9653 87.0003 27.3384 86.4516 28.0846C85.9248 28.8089 85.3981 29.7746 84.8713 30.9817C84.3446 32.1889 83.9166 33.4618 83.5874 34.8006C83.3459 35.8322 83.0606 36.5345 82.7314 36.9076C82.4241 37.2588 81.9303 37.4344 81.2499 37.4344ZM108.303 29.9282C108.589 29.9282 108.808 30.0599 108.962 30.3233C109.137 30.5867 109.225 30.9488 109.225 31.4097C109.225 32.2876 109.016 32.968 108.599 33.4509C107.787 34.4385 106.635 35.3493 105.143 36.1834C103.672 37.0174 102.092 37.4344 100.402 37.4344C98.0975 37.4344 96.3087 36.8089 95.0357 35.5578C93.7628 34.3068 93.1263 32.5949 93.1263 30.4221C93.1263 28.9077 93.4445 27.503 94.081 26.2081C94.7175 24.8912 95.5954 23.8487 96.7147 23.0805C97.856 22.3123 99.14 21.9282 100.567 21.9282C101.84 21.9282 102.86 22.3123 103.628 23.0805C104.396 23.8267 104.781 24.8473 104.781 26.1422C104.781 27.6566 104.232 28.9625 103.134 30.0599C102.059 31.1354 100.226 31.9913 97.6365 32.6278C98.1852 33.6374 99.2278 34.1422 100.764 34.1422C101.752 34.1422 102.871 33.802 104.122 33.1216C105.395 32.4193 106.492 31.5085 107.414 30.3891C107.678 30.0819 107.974 29.9282 108.303 29.9282ZM100.007 25.1546C99.1948 25.1546 98.5035 25.6265 97.9328 26.5702C97.3841 27.514 97.1098 28.6553 97.1098 29.9941V30.0599C98.4047 29.7526 99.4253 29.2917 100.172 28.6772C100.918 28.0627 101.291 27.3494 101.291 26.5373C101.291 26.1203 101.17 25.7911 100.929 25.5496C100.709 25.2863 100.402 25.1546 100.007 25.1546ZM109.628 37.4344C108.64 37.4344 107.828 36.9845 107.192 36.0846C106.577 35.1628 106.27 34.0215 106.27 32.6607C106.27 31.0146 106.38 29.5112 106.599 28.1505C106.819 26.7677 107.181 25.3082 107.686 23.7719C107.905 23.1134 108.212 22.6415 108.608 22.3562C109.003 22.0709 109.628 21.9282 110.484 21.9282C110.967 21.9282 111.296 22.0051 111.472 22.1587C111.669 22.3123 111.768 22.5428 111.768 22.8501C111.768 23.0256 111.647 23.6182 111.406 24.6278C111.186 25.4399 111.011 26.1751 110.879 26.8336C110.44 29.1381 110.221 30.6745 110.221 31.4426C110.221 31.9035 110.276 32.2327 110.385 32.4303C110.495 32.6059 110.671 32.6937 110.912 32.6937C111.241 32.6937 111.647 32.3644 112.13 31.706C112.635 31.0476 113.162 30.0489 113.71 28.7101C114.281 27.3713 114.83 25.7252 115.357 23.7719C115.532 23.1134 115.795 22.6415 116.147 22.3562C116.52 22.0709 117.068 21.9282 117.793 21.9282C118.298 21.9282 118.649 21.9941 118.846 22.1258C119.044 22.2355 119.143 22.455 119.143 22.7842C119.143 23.3329 118.868 24.8363 118.319 27.2945C117.705 30.1038 117.398 31.8377 117.398 32.4961C117.398 32.9131 117.485 33.2423 117.661 33.4838C117.837 33.7033 118.067 33.813 118.352 33.813C118.791 33.813 119.307 33.5496 119.9 33.0229C120.514 32.4742 121.326 31.5963 122.336 30.3891C122.599 30.0819 122.896 29.9282 123.225 29.9282C123.51 29.9282 123.73 30.0599 123.883 30.3233C124.059 30.5867 124.147 30.9488 124.147 31.4097C124.147 32.2876 123.938 32.968 123.521 33.4509C122.577 34.6141 121.557 35.5688 120.459 36.315C119.384 37.0613 118.155 37.4344 116.772 37.4344C115.719 37.4344 114.939 37.0283 114.435 36.2163C113.952 35.4042 113.71 34.2629 113.71 32.7924C113.337 34.2849 112.778 35.4371 112.031 36.2492C111.285 37.0393 110.484 37.4344 109.628 37.4344ZM138.717 27.1628C139.002 27.1628 139.222 27.3055 139.376 27.5908C139.529 27.8761 139.606 28.2382 139.606 28.6772C139.606 29.2259 139.529 29.6539 139.376 29.9611C139.222 30.2465 138.981 30.444 138.651 30.5537C137.334 31.0146 135.886 31.278 134.306 31.3439C133.867 33.1655 133.033 34.636 131.804 35.7554C130.596 36.8747 129.258 37.4344 127.787 37.4344C125.57 37.4344 123.957 36.5894 122.948 34.8994C121.938 33.2094 121.433 30.7622 121.433 27.5579C121.433 24.7266 121.784 21.6539 122.487 18.3398C123.189 15.0037 124.21 12.1724 125.548 9.84596C126.909 7.49754 128.522 6.32333 130.388 6.32333C131.398 6.32333 132.21 6.76229 132.824 7.6402C133.439 8.49617 133.746 9.61551 133.746 10.9982C133.746 12.7979 133.406 14.5867 132.725 16.3645C132.045 18.1422 130.915 20.0078 129.334 21.9612C130.805 22.0709 132.001 22.6854 132.923 23.8048C133.845 24.9022 134.393 26.2629 134.569 27.8871C135.601 27.8212 136.83 27.6018 138.256 27.2286C138.388 27.1847 138.542 27.1628 138.717 27.1628ZM129.631 9.58259C129.192 9.58259 128.709 10.241 128.182 11.5579C127.677 12.8528 127.206 14.6196 126.767 16.8583C126.328 19.097 125.998 21.5442 125.779 24.1998C127.227 21.5442 128.38 19.2067 129.236 17.1875C130.114 15.1464 130.553 13.3357 130.553 11.7554C130.553 11.0531 130.465 10.5154 130.289 10.1423C130.136 9.76914 129.916 9.58259 129.631 9.58259ZM127.919 33.9447C128.599 33.9447 129.203 33.6594 129.73 33.0887C130.256 32.5181 130.607 31.695 130.783 30.6196C130.103 30.1587 129.576 29.5551 129.203 28.8089C128.852 28.0627 128.676 27.2725 128.676 26.4385C128.676 26.1313 128.72 25.7142 128.808 25.1875H128.709C127.809 25.1875 127.052 25.6374 126.437 26.5373C125.845 27.4152 125.548 28.6004 125.548 30.0928C125.548 31.3439 125.779 32.2986 126.24 32.957C126.723 33.6155 127.282 33.9447 127.919 33.9447ZM140.538 37.4344C139.178 37.4344 138.091 36.9406 137.279 35.9529C136.467 34.9653 136.061 33.6703 136.061 32.0681C136.061 30.3123 136.467 28.6553 137.279 27.097C138.091 25.5167 139.167 24.2547 140.506 23.311C141.866 22.3453 143.304 21.8624 144.818 21.8624C145.301 21.8624 145.619 21.9612 145.773 22.1587C145.949 22.3343 146.091 22.6635 146.201 23.1463C146.662 23.0586 147.145 23.0147 147.65 23.0147C148.725 23.0147 149.263 23.3987 149.263 24.1669C149.263 24.6278 149.098 25.7252 148.769 27.4591C148.264 29.9831 148.012 31.7389 148.012 32.7266C148.012 33.0558 148.089 33.3192 148.242 33.5167C148.418 33.7142 148.637 33.813 148.901 33.813C149.318 33.813 149.822 33.5496 150.415 33.0229C151.008 32.4742 151.809 31.5963 152.818 30.3891C153.082 30.0819 153.378 29.9282 153.707 29.9282C153.992 29.9282 154.212 30.0599 154.366 30.3233C154.541 30.5867 154.629 30.9488 154.629 31.4097C154.629 32.2876 154.42 32.968 154.003 33.4509C153.104 34.5702 152.149 35.5139 151.139 36.2821C150.13 37.0503 149.153 37.4344 148.209 37.4344C147.485 37.4344 146.816 37.193 146.201 36.7101C145.608 36.2053 145.158 35.5249 144.851 34.669C143.71 36.5126 142.272 37.4344 140.538 37.4344ZM141.724 34.1093C142.207 34.1093 142.667 33.824 143.106 33.2533C143.545 32.6827 143.864 31.9255 144.061 30.9817L145.279 24.9241C144.357 24.9461 143.501 25.2972 142.711 25.9776C141.943 26.6361 141.329 27.514 140.868 28.6114C140.407 29.7087 140.176 30.872 140.176 32.1011C140.176 32.7814 140.308 33.2862 140.571 33.6155C140.857 33.9447 141.241 34.1093 141.724 34.1093ZM141.822 19.7554C141.12 19.7554 140.571 19.5688 140.176 19.1957C139.781 18.8007 139.584 18.1971 139.584 17.385C139.584 16.5071 139.814 15.8267 140.275 15.3439C140.758 14.8391 141.394 14.5867 142.185 14.5867C142.887 14.5867 143.436 14.7842 143.831 15.1793C144.226 15.5524 144.423 16.145 144.423 16.9571C144.423 17.835 144.182 18.5263 143.699 19.0311C143.238 19.514 142.613 19.7554 141.822 19.7554ZM148.67 19.7554C147.968 19.7554 147.419 19.5688 147.024 19.1957C146.629 18.8007 146.431 18.1971 146.431 17.385C146.431 16.5071 146.662 15.8267 147.123 15.3439C147.606 14.8391 148.242 14.5867 149.032 14.5867C149.735 14.5867 150.283 14.7842 150.678 15.1793C151.073 15.5524 151.271 16.145 151.271 16.9571C151.271 17.835 151.03 18.5263 150.547 19.0311C150.086 19.514 149.46 19.7554 148.67 19.7554ZM164.979 26.4385C165.462 26.4385 165.868 26.6141 166.197 26.9653C166.549 27.2945 166.724 27.7115 166.724 28.2163C166.724 28.5016 166.658 28.8089 166.527 29.1381C166.176 29.9502 165.682 30.6306 165.045 31.1793C164.409 31.7279 163.706 32.0023 162.938 32.0023C162.324 32.0023 161.797 31.7828 161.358 31.3439C160.941 30.9049 160.732 30.3123 160.732 29.5661C160.732 29.1491 160.754 28.6991 160.798 28.2163C160.842 27.8651 160.864 27.6237 160.864 27.492C160.864 27.3164 160.82 27.1847 160.732 27.097C160.667 27.0092 160.579 26.9653 160.469 26.9653C160.162 26.9653 159.745 27.3384 159.218 28.0846C158.691 28.8089 158.165 29.7746 157.638 30.9817C157.111 32.1889 156.683 33.4618 156.354 34.8006C156.112 35.8541 155.838 36.5565 155.531 36.9076C155.224 37.2588 154.719 37.4344 154.016 37.4344C153.182 37.4344 152.59 36.9954 152.239 36.1175C151.909 35.2396 151.745 33.8349 151.745 31.9035C151.745 29.0503 152.151 26.3398 152.963 23.7719C153.16 23.1354 153.479 22.6745 153.918 22.3891C154.379 22.0819 155.015 21.9282 155.827 21.9282C156.266 21.9282 156.573 21.9831 156.749 22.0928C156.924 22.2026 157.012 22.4111 157.012 22.7184C157.012 23.0695 156.848 23.8597 156.518 25.0887C156.299 25.9666 156.123 26.7348 155.992 27.3933C155.86 28.0517 155.75 28.8638 155.662 29.8295C156.387 27.9419 157.199 26.4056 158.099 25.2204C158.999 24.0352 159.876 23.1902 160.732 22.6854C161.588 22.1806 162.368 21.9282 163.07 21.9282C163.706 21.9282 164.189 22.1148 164.518 22.4879C164.87 22.8391 165.045 23.3658 165.045 24.0682C165.045 24.4852 164.924 25.2753 164.683 26.4385H164.979Z" fill="#0A0C11"/>
<defs>
<linearGradient id="paint0_linear_17_491" x1="23.643" y1="34.2931" x2="23.643" y2="46.6395" gradientUnits="userSpaceOnUse">
<stop stop-color="white"/>
<stop offset="1" stop-color="#ECEDFF"/>
</linearGradient>
</defs>
</svg>
