<svg width="20" height="20" viewBox="0 0 20 20" fill="none" xmlns="http://www.w3.org/2000/svg">
<path transform="translate(2.1666, 0.9166)" d="M6.8948 17.0103L5.20288 16.006C4.77347 15.7511 4.55877 15.6237 4.32048 15.6163C4.06299 15.6084 3.84447 15.7306 3.38047 16.006C2.86079 16.3145 1.82745 17.1642 1.15903 16.759C0.750007 16.511 0.750007 15.8812 0.750007 14.6214V5.75C0.750007 3.39298 0.750007 2.21447 1.48224 1.48223C2.21447 0.750002 3.39298 0.750002 5.75001 0.750002H9.91667C12.2737 0.750002 13.4522 0.750002 14.1844 1.48223C14.9167 2.21447 14.9167 3.39298 14.9167 5.75V14.6214C14.9167 15.8812 14.9167 16.511 14.5077 16.759C13.8392 17.1642 12.8059 16.3145 12.2862 16.006C11.8568 15.7511 11.6421 15.6237 11.4038 15.6163C11.1463 15.6084 10.9278 15.7306 10.4638 16.006L8.77188 17.0103C8.31549 17.2812 8.08727 17.4166 7.83334 17.4166C7.57941 17.4166 7.35119 17.2812 6.8948 17.0103Z" stroke="#0A0C11" stroke-width="1.5" stroke-linecap="round" stroke-linejoin="round"/>
<g transform="translate(6.5, 6.5)">
<path d="M6 1L1 6" stroke="#0A0C11" stroke-width="1.5" stroke-linecap="round" stroke-linejoin="round"/>
<path d="M6 6H5.99253M1.00747 1H1" stroke="#0A0C11" stroke-width="2" stroke-linecap="round" stroke-linejoin="round"/>
</g>
</svg>
