<svg width="24" height="24" viewBox="0 0 22 22" fill="none" xmlns="http://www.w3.org/2000/svg">
  <path d="M0.750002 4.75C0.750002 2.86438 0.750002 1.92158 1.33579 1.33579C1.92158 0.750002 2.86438 0.750002 4.75 0.750002C6.63562 0.750002 7.57843 0.750002 8.16422 1.33579C8.75 1.92158 8.75 2.86438 8.75 4.75V6.75C8.75 8.63562 8.75 9.57843 8.16422 10.1642C7.57843 10.75 6.63562 10.75 4.75 10.75C2.86438 10.75 1.92158 10.75 1.33579 10.1642C0.750002 9.57843 0.750002 8.63562 0.750002 6.75V4.75Z" stroke="#8C929C" stroke-width="1.5"/>
  <path d="M0.750002 17.75C0.750002 16.8181 0.750002 16.3522 0.902243 15.9846C1.10523 15.4946 1.49458 15.1052 1.98464 14.9022C2.35218 14.75 2.81812 14.75 3.75 14.75H5.75C6.68189 14.75 7.14783 14.75 7.51537 14.9022C8.00543 15.1052 8.39477 15.4946 8.59776 15.9846C8.75 16.3522 8.75 16.8181 8.75 17.75C8.75 18.6819 8.75 19.1478 8.59776 19.5154C8.39477 20.0054 8.00543 20.3948 7.51537 20.5978C7.14783 20.75 6.68189 20.75 5.75 20.75H3.75C2.81812 20.75 2.35218 20.75 1.98464 20.5978C1.49458 20.3948 1.10523 20.0054 0.902243 19.5154C0.750002 19.1478 0.750002 18.6819 0.750002 17.75Z" stroke="#8C929C" stroke-width="1.5"/>
  <path d="M12.75 14.75C12.75 12.8644 12.75 11.9216 13.3358 11.3358C13.9216 10.75 14.8644 10.75 16.75 10.75C18.6356 10.75 19.5784 10.75 20.1642 11.3358C20.75 11.9216 20.75 12.8644 20.75 14.75V16.75C20.75 18.6356 20.75 19.5784 20.1642 20.1642C19.5784 20.75 18.6356 20.75 16.75 20.75C14.8644 20.75 13.9216 20.75 13.3358 20.1642C12.75 19.5784 12.75 18.6356 12.75 16.75V14.75Z" stroke="#8C929C" stroke-width="1.5"/>
  <path d="M12.75 3.75C12.75 2.81812 12.75 2.35218 12.9022 1.98464C13.1052 1.49458 13.4946 1.10523 13.9846 0.902243C14.3522 0.750002 14.8181 0.750002 15.75 0.750002H17.75C18.6819 0.750002 19.1478 0.750002 19.5154 0.902243C20.0054 1.10523 20.3948 1.49458 20.5978 1.98464C20.75 2.35218 20.75 2.81812 20.75 3.75C20.75 4.68189 20.75 5.14783 20.5978 5.51537C20.3948 6.00543 20.0054 6.39477 19.5154 6.59776C19.1478 6.75 18.6819 6.75 17.75 6.75H15.75C14.8181 6.75 14.3522 6.75 13.9846 6.59776C13.4946 6.39477 13.1052 6.00543 12.9022 5.51537C12.75 5.14783 12.75 4.68189 12.75 3.75Z" stroke="#8C929C" stroke-width="1.5"/>
</svg>
