<svg width="24" height="24" viewBox="0 0 22 22" fill="none" xmlns="http://www.w3.org/2000/svg">
  <path d="M11.413 14.75C11.413 15.1642 11.0773 15.5 10.663 15.5C10.2488 15.5 9.91305 15.1642 9.91305 14.75L10.663 14.75L11.413 14.75ZM9.91305 6.75C9.91305 6.33579 10.2488 6 10.663 6C11.0773 6 11.413 6.33579 11.413 6.75H10.663H9.91305ZM11.7083 12.6204C11.9376 12.2755 12.4032 12.1818 12.7481 12.4112C13.093 12.6406 13.1866 13.1062 12.9572 13.4511L12.3327 13.0357L11.7083 12.6204ZM9.53331 8.8045C9.24374 9.10068 8.76889 9.10603 8.47272 8.81646C8.17654 8.52689 8.17119 8.05204 8.46076 7.75587L8.99703 8.28018L9.53331 8.8045ZM10.663 10.8651V11.6151C10.0289 11.6151 9.75185 11.7323 9.64231 11.8166C9.57698 11.8669 9.5 11.9562 9.5 12.2478H8.75H8C8 11.6484 8.18389 11.0464 8.72726 10.628C9.22641 10.2437 9.90589 10.1151 10.663 10.1151V10.8651ZM8.75 12.2478H9.5C9.5 12.6097 9.89579 13.1109 10.663 13.1109V13.8609V14.6109C9.31721 14.6109 8 13.6677 8 12.2478H8.75ZM12.75 9.25189H12C12 8.9122 11.8795 8.74495 11.7143 8.63153C11.5086 8.49031 11.1571 8.38872 10.663 8.38872V7.63872V6.88872C11.3216 6.88872 12.0136 7.01758 12.5632 7.39488C13.1533 7.79997 13.5 8.43931 13.5 9.25189H12.75ZM10.663 10.8651V10.1151C11.3044 10.1151 11.6272 10.0032 11.78 9.88923C11.884 9.81179 12 9.66778 12 9.25189H12.75H13.5C13.5 9.98825 13.2682 10.6508 12.6765 11.0919C12.1337 11.4965 11.413 11.6151 10.663 11.6151V10.8651ZM10.663 13.8609L11.413 13.8609L11.413 14.75L10.663 14.75L9.91305 14.75L9.91305 13.8609L10.663 13.8609ZM10.663 7.63872H9.91305V6.75H10.663H11.413V7.63872H10.663ZM10.663 13.8609V13.1109C11.1577 13.1109 11.5349 12.8811 11.7083 12.6204L12.3327 13.0357L12.9572 13.4511C12.4756 14.1752 11.6027 14.6109 10.663 14.6109V13.8609ZM10.663 7.63872V8.38872C10.1581 8.38872 9.75584 8.57689 9.53331 8.8045L8.99703 8.28018L8.46076 7.75587C9.00016 7.20415 9.80685 6.88872 10.663 6.88872V7.63872Z" fill="#8C929C"/>
  <path d="M3.3295 14.143L0.750003 14.2958C2.599 19.0451 7.90764 21.7502 13.0834 20.4052C18.5961 18.9728 21.8705 13.4885 20.397 8.15569C19.1783 3.74491 15.0933 0.819283 10.5979 0.750002" stroke="#8C929C" stroke-width="1.5" stroke-linecap="round" stroke-linejoin="round"/>
  <path d="M10.75 0.750002C5.25 0.750002 0.750002 5.75 0.750002 11.75" stroke="#8C929C" stroke-width="1.5" stroke-linecap="round" stroke-linejoin="round" stroke-dasharray="0.5 3"/>
</svg>
