<svg width="20" height="20" viewBox="0 0 20 20" fill="none" xmlns="http://www.w3.org/2000/svg">
<g transform="translate(0.9166, 2.1666)">
<path d="M0.750002 2.83335L6.51085 6.09749C8.63467 7.30085 9.532 7.30085 11.6558 6.09749L17.4167 2.83335" stroke="#0A0C11" stroke-width="1.5" stroke-linejoin="round"/>
<path d="M0.763138 9.06302C0.817617 11.6176 0.844857 12.8949 1.78746 13.8411C2.73007 14.7873 4.04194 14.8203 6.66569 14.8862C8.28276 14.9268 9.88391 14.9268 11.501 14.8862C14.1247 14.8203 15.4366 14.7873 16.3792 13.8411C17.3218 12.8949 17.3491 11.6176 17.4035 9.06302C17.421 8.24162 17.421 7.42506 17.4035 6.60366C17.3491 4.04905 17.3218 2.77174 16.3792 1.82555C15.4366 0.879359 14.1247 0.846397 11.501 0.780474C9.88391 0.739844 8.28276 0.739842 6.66569 0.780469C4.04194 0.846386 2.73007 0.879345 1.78746 1.82554C0.844853 2.77173 0.817614 4.04904 0.763137 6.60365C0.745621 7.42505 0.745621 8.24161 0.763138 9.06302Z" stroke="#0A0C11" stroke-width="1.5" stroke-linejoin="round"/>
</g>
</svg>
