<svg preserveAspectRatio="none" width="100%" height="100%" overflow="visible" style="display: block;" viewBox="0 0 10.8753 10.875" fill="none" xmlns="http://www.w3.org/2000/svg">
<path id="Vector" d="M0.236743 0.236487C0.532713 -0.0593936 1.00108 -0.0774552 1.31853 0.181555L1.38005 0.236487L5.43767 4.2941L9.49529 0.236487L9.55681 0.181555C9.87429 -0.0774765 10.3426 -0.0594744 10.6386 0.236487C10.9345 0.532452 10.9526 1.00082 10.6935 1.31827L10.6386 1.3798L6.58098 5.43741L10.6386 9.49503C10.9542 9.81069 10.9542 10.3227 10.6386 10.6383C10.323 10.954 9.81095 10.9539 9.49529 10.6383L5.43767 6.58072L1.38005 10.6383C1.06443 10.954 0.55241 10.9539 0.236743 10.6383C-0.0789144 10.3227 -0.0789144 9.81069 0.236743 9.49503L4.29436 5.43741L0.236743 1.3798L0.181812 1.31827C-0.0772262 1.0008 -0.0592221 0.532449 0.236743 0.236487Z" fill="var(--fill-0, #0A0C11)"/>
</svg>
