<svg preserveAspectRatio="none" width="100%" height="100%" overflow="visible" style="display: block;" viewBox="0 0 18.1667 14.8333" fill="none" xmlns="http://www.w3.org/2000/svg">
<g id="elements">
<path id="Vector" d="M0.750001 7.41667C0.750001 4.46876 0.750001 2.99481 1.62733 2.01075C1.76766 1.85336 1.92232 1.7078 2.08955 1.57573C3.13511 0.75 4.70119 0.75 7.83333 0.75H10.3333C13.4655 0.75 15.0316 0.75 16.0771 1.57573C16.2444 1.7078 16.399 1.85336 16.5393 2.01075C17.4167 2.99481 17.4167 4.46876 17.4167 7.41667C17.4167 10.3646 17.4167 11.8385 16.5393 12.8226C16.399 12.98 16.2444 13.1255 16.0771 13.2576C15.0316 14.0833 13.4655 14.0833 10.3333 14.0833H7.83333C4.70119 14.0833 3.13511 14.0833 2.08955 13.2576C1.92232 13.1255 1.76766 12.98 1.62733 12.8226C0.750001 11.8385 0.750001 10.3646 0.750001 7.41667Z" stroke="var(--stroke-0, black)" stroke-width="1.5" stroke-linecap="round" stroke-linejoin="round"/>
<path id="Vector_2" d="M11.2092 7.41667C11.2092 8.56726 10.2764 9.5 9.12582 9.5C7.97523 9.5 7.04249 8.56726 7.04249 7.41667C7.04249 6.26607 7.97523 5.33333 9.12582 5.33333C10.2764 5.33333 11.2092 6.26607 11.2092 7.41667Z" stroke="var(--stroke-0, black)" stroke-width="1.5"/>
<path id="Vector_3" d="M3.25 7.41667L4.08333 7.41667" stroke="var(--stroke-0, #0A0C11)" stroke-width="1.5" stroke-linecap="round"/>
<path id="Vector_4" d="M14.0833 7.41667L14.9167 7.41667" stroke="var(--stroke-0, #0A0C11)" stroke-width="1.5" stroke-linecap="round"/>
</g>
</svg>
